<?xml version="1.0" standalone="no"?>
<!DOCTYPE svg PUBLIC "-//W3C//DTD SVG 20010904//EN"
 "http://www.w3.org/TR/2001/REC-SVG-20010904/DTD/svg10.dtd">
<svg version="1.0" xmlns="http://www.w3.org/2000/svg"
 width="512.000000pt" height="512.000000pt" viewBox="0 0 512.000000 512.000000"
 preserveAspectRatio="xMidYMid meet">
<metadata>
Created by potrace 1.14, written by Peter Selinger 2001-2017
</metadata>
<g transform="translate(0.000000,512.000000) scale(0.100000,-0.100000)"
fill="#000000" stroke="none">
<path d="M665 5109 c-315 -59 -558 -284 -641 -594 -18 -67 -19 -143 -19 -1955
0 -1812 1 -1888 19 -1955 78 -293 287 -499 591 -583 55 -16 216 -17 1945 -17
1729 0 1890 1 1945 17 106 29 172 58 248 108 171 111 290 276 343 475 18 67
19 143 19 1955 0 1812 -1 1888 -19 1955 -53 199 -172 364 -343 475 -73 48
-133 75 -243 108 -50 16 -208 17 -1925 18 -1118 1 -1890 -2 -1920 -7z m1981
-1106 c95 -224 246 -519 332 -648 125 -189 249 -305 462 -433 102 -61 385
-199 565 -276 l130 -55 0 -46 0 -46 -135 -58 c-347 -149 -613 -294 -770 -420
-156 -126 -274 -291 -428 -601 -54 -107 -124 -257 -156 -332 l-59 -138 -46 0
-46 0 -59 138 c-74 172 -217 462 -281 567 -73 121 -178 257 -248 320 -143 131
-475 318 -832 469 l-130 55 0 46 0 45 171 74 c362 155 645 316 787 447 74 67
178 201 252 324 64 105 207 395 281 568 l59 137 46 0 46 0 59 -137z"/>
</g>
</svg>
