<?xml version="1.0" standalone="no"?>
<!DOCTYPE svg PUBLIC "-//W3C//DTD SVG 20010904//EN"
 "http://www.w3.org/TR/2001/REC-SVG-20010904/DTD/svg10.dtd">
<svg version="1.0" xmlns="http://www.w3.org/2000/svg"
 width="512.000000pt" height="512.000000pt" viewBox="0 0 512.000000 512.000000"
 preserveAspectRatio="xMidYMid meet">
<metadata>
Created by potrace 1.14, written by Peter Selinger 2001-2017
</metadata>
<g transform="translate(0.000000,512.000000) scale(0.100000,-0.100000)"
fill="#000000" stroke="none">
<path d="M2441 4012 c-177 -417 -364 -736 -518 -883 -156 -150 -428 -305 -833
-478 l-146 -62 0 -44 -1 -44 151 -65 c83 -36 183 -80 221 -99 39 -19 88 -42
110 -52 120 -55 306 -169 425 -260 187 -144 351 -403 574 -908 36 -82 66 -153
66 -158 0 -5 22 -9 48 -9 l49 0 28 68 c15 37 43 100 61 140 19 41 34 76 34 79
0 7 155 316 186 370 62 108 170 258 233 322 78 80 199 171 330 248 106 63 402
207 561 274 58 24 108 48 112 54 4 5 8 27 8 48 0 27 -5 39 -17 44 -24 8 -214
89 -283 120 -103 47 -245 117 -312 155 -37 21 -84 47 -105 59 -201 112 -385
305 -527 553 -52 90 -183 360 -246 509 l-64 147 -45 0 -46 0 -54 -128z"/>
</g>
</svg>
