<?xml version="1.0" encoding="utf-8"?>
<!-- Generator: Adobe Illustrator 26.4.1, SVG Export Plug-In . SVG Version: 6.00 Build 0)  -->
<svg version="1.1" id="Layer_1" xmlns="http://www.w3.org/2000/svg" xmlns:xlink="http://www.w3.org/1999/xlink" x="0px" y="0px"
	 viewBox="0 0 512 512" style="enable-background:new 0 0 512 512;" xml:space="preserve">
<style type="text/css">
	.st0{display:none;}
	.st1{display:inline;fill:#C49A6C;}
	.st2{fill:#C49A6C;}
</style>
<g class="st0">
	<path class="st1" d="M256,397.66c-7.61-63.51-15.18-95.82-46.82-114.42c-31.06-18.26-84.7-22.85-189.25-27.25
		c104.55-4.4,158.19-8.99,189.25-27.25c31.64-18.6,39.22-50.91,46.82-114.42c7.61,63.51,15.18,95.82,46.83,114.42
		c31.06,18.26,84.7,22.85,189.25,27.25c-104.55,4.4-158.19,8.99-189.25,27.25C271.18,301.85,263.61,334.15,256,397.66z"/>
	<path class="st1" d="M256,118.5c7.47,60.98,15.43,92.38,46.57,110.69c29.98,17.62,80.82,22.55,177.86,26.81
		c-97.03,4.27-147.88,9.19-177.86,26.81c-31.14,18.31-39.1,49.71-46.57,110.69c-7.47-60.98-15.43-92.38-46.57-110.69
		C179.45,265.19,128.6,260.27,31.57,256c97.03-4.27,147.88-9.19,177.86-26.81C240.57,210.88,248.53,179.47,256,118.5 M256,110.09
		C240.77,239.79,228.42,247.05,7.8,256c220.62,8.95,232.97,16.21,248.2,145.91c15.23-129.7,27.58-136.96,248.2-145.91
		C283.58,247.05,271.23,239.79,256,110.09L256,110.09z"/>
</g>
<g>
	<path class="st2" d="M500.55,256C299.16,270.2,279.83,281.71,256,401.67C232.17,281.71,212.84,270.2,11.45,256
		c201.4-14.2,220.72-25.71,244.55-145.67C279.83,230.29,299.16,241.8,500.55,256z"/>
</g>
</svg>
