<?xml version="1.0" encoding="utf-8"?>
<!-- Generator: Adobe Illustrator 26.4.1, SVG Export Plug-In . SVG Version: 6.00 Build 0)  -->
<svg version="1.1" id="Layer_1" xmlns="http://www.w3.org/2000/svg" xmlns:xlink="http://www.w3.org/1999/xlink" x="0px" y="0px"
	 viewBox="0 0 512 512" style="enable-background:new 0 0 512 512;" xml:space="preserve">
<style type="text/css">
	.st0{display:none;}
	.st1{display:inline;fill:#C49A6C;}
</style>
<g class="st0">
	<path class="st1" d="M256,397.7c-7.6-63.5-15.2-95.8-46.8-114.4C178.1,265,124.5,260.4,19.9,256c104.6-4.4,158.2-9,189.2-27.2
		c31.6-18.6,39.2-50.9,46.8-114.4c7.6,63.5,15.2,95.8,46.8,114.4c31.1,18.3,84.7,22.9,189.2,27.2c-104.5,4.4-158.2,9-189.2,27.2
		C271.2,301.9,263.6,334.1,256,397.7z"/>
	<path class="st1" d="M256,118.5c7.5,61,15.4,92.4,46.6,110.7c30,17.6,80.8,22.6,177.9,26.8c-97,4.3-147.9,9.2-177.9,26.8
		c-31.1,18.3-39.1,49.7-46.6,110.7c-7.5-61-15.4-92.4-46.6-110.7c-30-17.6-80.8-22.5-177.9-26.8c97-4.3,147.9-9.2,177.9-26.8
		C240.6,210.9,248.5,179.5,256,118.5 M256,110.1C240.8,239.8,228.4,247.1,7.8,256c220.6,9,233,16.2,248.2,145.9
		c15.2-129.7,27.6-137,248.2-145.9C283.6,247.1,271.2,239.8,256,110.1L256,110.1z"/>
</g>
<g>
	<path d="M500.5,256C299.2,270.2,279.8,281.7,256,401.7c-23.8-120-43.2-131.5-244.6-145.7c201.4-14.2,220.7-25.7,244.6-145.7
		C279.8,230.3,299.2,241.8,500.5,256z"/>
</g>
</svg>
