<?xml version="1.0" standalone="no"?>
<!DOCTYPE svg PUBLIC "-//W3C//DTD SVG 20010904//EN"
 "http://www.w3.org/TR/2001/REC-SVG-20010904/DTD/svg10.dtd">
<svg version="1.0" xmlns="http://www.w3.org/2000/svg"
 width="700.000000pt" height="700.000000pt" viewBox="0 0 700.000000 700.000000"
 preserveAspectRatio="xMidYMid meet">
<metadata>
Created by potrace 1.14, written by Peter Selinger 2001-2017
</metadata>
<g transform="translate(0.000000,700.000000) scale(0.100000,-0.100000)"
fill="#000000" stroke="none">
<path d="M3493 5460 c-1 -10 -11 -63 -23 -117 -12 -54 -28 -126 -35 -161 -8
-34 -30 -122 -49 -195 -202 -767 -483 -1061 -1188 -1241 -73 -19 -150 -37
-172 -40 -21 -4 -41 -8 -45 -10 -4 -3 -83 -16 -176 -31 -94 -14 -181 -28 -195
-30 -14 -2 -50 -7 -80 -10 -30 -3 -66 -8 -80 -10 -14 -2 -43 -6 -65 -9 -22 -3
-69 -8 -105 -11 -36 -3 -81 -7 -100 -10 -19 -2 -64 -7 -100 -10 -36 -4 -81 -8
-100 -10 -19 -2 -71 -6 -115 -10 -44 -3 -96 -8 -115 -10 -20 -2 -76 -7 -125
-10 -50 -4 -110 -8 -135 -10 -73 -6 -234 -18 -252 -19 -10 0 -18 -4 -18 -8 0
-4 28 -8 63 -9 34 -1 73 -2 87 -4 30 -3 169 -14 265 -20 39 -3 93 -7 120 -10
28 -2 82 -7 120 -10 39 -3 86 -8 105 -10 19 -2 67 -7 105 -10 39 -4 81 -8 95
-10 14 -2 57 -6 95 -10 39 -3 84 -8 100 -10 17 -3 50 -7 75 -10 25 -2 81 -10
125 -16 44 -6 94 -12 112 -14 17 -2 57 -8 90 -14 32 -6 74 -13 93 -16 79 -13
289 -57 340 -72 163 -47 227 -66 245 -74 11 -4 49 -20 85 -35 262 -106 467
-275 603 -499 47 -77 129 -263 171 -387 37 -109 105 -362 131 -483 2 -11 11
-54 20 -95 8 -41 18 -92 22 -112 6 -39 23 -53 23 -20 0 10 18 99 40 198 102
462 187 703 333 939 29 47 110 144 164 197 233 226 625 376 1211 464 20 3 48
7 62 9 62 10 260 35 310 40 30 3 71 7 90 10 48 6 133 14 205 20 33 3 78 7 100
10 22 2 74 7 115 10 41 3 91 8 110 10 19 2 76 7 125 10 50 4 110 8 135 10 128
10 247 18 262 17 10 0 20 3 22 7 3 4 -21 9 -52 10 -80 4 -136 8 -222 15 -81 7
-154 13 -265 21 -38 3 -92 7 -120 10 -27 3 -77 8 -110 10 -33 3 -78 7 -100 10
-22 2 -71 7 -110 10 -38 4 -83 9 -100 11 -16 2 -55 6 -85 9 -30 3 -71 8 -90
11 -19 3 -55 7 -80 10 -25 2 -56 7 -70 9 -44 8 -84 14 -130 20 -42 5 -122 18
-180 30 -14 3 -38 8 -55 11 -164 29 -419 100 -545 151 -227 93 -404 221 -545
393 -119 146 -250 454 -331 780 -21 86 -26 108 -30 130 -3 14 -7 33 -10 42 -6
19 -5 18 -36 165 -24 113 -33 138 -35 103z"/>
</g>
</svg>
