<?xml version="1.0" standalone="no"?>
<!DOCTYPE svg PUBLIC "-//W3C//DTD SVG 20010904//EN"
 "http://www.w3.org/TR/2001/REC-SVG-20010904/DTD/svg10.dtd">
<svg version="1.0" xmlns="http://www.w3.org/2000/svg"
 width="512.000000pt" height="512.000000pt" viewBox="0 0 512.000000 512.000000"
 preserveAspectRatio="xMidYMid meet">
<metadata>
Created by potrace 1.14, written by Peter Selinger 2001-2017
</metadata>
<g transform="translate(0.000000,512.000000) scale(0.100000,-0.100000)"
fill="#000000" stroke="none">
<path d="M1018 3119 c-30 -30 -31 -32 -25 -102 3 -40 20 -124 36 -187 35 -130
36 -149 18 -175 -24 -32 -64 -10 -178 101 -145 141 -228 176 -284 120 -36 -36
-42 -73 -19 -115 25 -47 111 -90 264 -131 126 -34 153 -50 148 -89 -3 -24 -16
-30 -168 -81 -184 -61 -200 -69 -229 -106 -31 -39 -28 -89 8 -125 58 -57 120
-33 273 110 139 130 168 145 189 98 8 -18 4 -52 -19 -153 -41 -177 -45 -206
-32 -252 25 -96 135 -111 176 -24 21 44 15 121 -21 272 -29 123 -32 178 -10
186 30 12 72 -18 175 -121 142 -143 214 -175 273 -121 37 34 43 68 20 113 -25
52 -89 84 -253 128 -74 20 -140 41 -147 47 -18 14 -16 53 2 72 9 8 48 25 88
36 203 58 242 73 280 111 29 29 37 44 37 72 0 49 -8 65 -41 82 -66 34 -122 7
-268 -130 -113 -106 -149 -127 -176 -105 -23 19 -18 71 16 199 20 72 32 142
33 184 1 63 -1 71 -27 93 -42 36 -99 33 -139 -7z"/>
<path d="M2488 3119 c-30 -30 -31 -32 -25 -102 3 -40 20 -124 36 -187 35 -130
36 -149 18 -175 -24 -32 -64 -10 -178 101 -145 141 -228 176 -284 120 -36 -36
-42 -73 -19 -115 25 -47 111 -90 264 -131 126 -34 153 -50 148 -89 -3 -24 -16
-30 -168 -81 -184 -61 -200 -69 -229 -106 -31 -39 -28 -89 8 -125 58 -57 120
-33 273 110 139 130 168 145 189 98 8 -18 4 -52 -19 -153 -41 -177 -45 -206
-32 -252 25 -96 135 -111 176 -24 21 44 15 121 -21 272 -29 123 -32 178 -10
186 30 12 72 -18 175 -121 142 -143 214 -175 273 -121 37 34 43 68 20 113 -25
52 -89 84 -253 128 -74 20 -140 41 -147 47 -18 14 -16 53 2 72 9 8 48 25 88
36 203 58 242 73 280 111 29 29 37 44 37 72 0 49 -8 65 -41 82 -66 34 -122 7
-268 -130 -113 -106 -149 -127 -176 -105 -23 19 -18 71 16 199 20 72 32 142
33 184 1 63 -1 71 -27 93 -42 36 -99 33 -139 -7z"/>
<path d="M3968 3119 c-30 -30 -31 -32 -25 -102 3 -40 20 -124 36 -187 35 -130
36 -149 18 -175 -24 -32 -64 -10 -178 101 -145 141 -228 176 -284 120 -36 -36
-42 -73 -19 -115 25 -47 111 -90 264 -131 126 -34 153 -50 148 -89 -3 -24 -16
-30 -168 -81 -184 -61 -200 -69 -229 -106 -31 -39 -28 -89 8 -125 58 -57 120
-33 273 110 139 130 168 145 189 98 8 -18 4 -52 -19 -153 -41 -177 -45 -206
-32 -252 25 -96 135 -111 176 -24 21 44 15 121 -21 272 -29 123 -32 178 -10
186 30 12 72 -18 175 -121 142 -143 214 -175 273 -121 37 34 43 68 20 113 -25
52 -89 84 -253 128 -74 20 -140 41 -147 47 -18 14 -16 53 2 72 9 8 48 25 88
36 203 58 242 73 280 111 29 29 37 44 37 72 0 49 -8 65 -41 82 -66 34 -122 7
-268 -130 -113 -106 -149 -127 -176 -105 -23 19 -18 71 16 199 20 72 32 142
33 184 1 63 -1 71 -27 93 -42 36 -99 33 -139 -7z"/>
</g>
</svg>
